<svg width="24" height="24" viewBox="0 0 24 24" fill="none" xmlns="http://www.w3.org/2000/svg">
<path opacity="0.4" d="M11.9993 21.9982C11.2303 21.9982 10.4623 21.7062 9.87526 21.1232L9.14526 20.3932C8.86226 20.1112 8.48326 19.9552 8.08126 19.9542H7.05426C5.39426 19.9542 4.04326 18.6032 4.04326 16.9432V15.9152C4.04226 15.5142 3.88626 15.1352 3.60326 14.8502L2.88526 14.1332C1.70926 12.9642 1.70426 11.0532 2.87426 9.87621L3.60426 9.14521C3.88626 8.86221 4.04226 8.48321 4.04326 8.08121V7.05521C4.04326 5.39421 5.39426 4.04321 7.05426 4.04321H8.08226C8.48326 4.04321 8.86126 3.88721 9.14626 3.60221L9.86526 2.88521C11.0343 1.70921 12.9443 1.70321 14.1223 2.87421L14.8523 3.60421C15.1363 3.88721 15.5143 4.04321 15.9153 4.04321H16.9433C18.6033 4.04321 19.9543 5.39421 19.9543 7.05521V8.08221C19.9553 8.48321 20.1113 8.86221 20.3943 9.14721L21.1123 9.86521C21.6813 10.4312 21.9963 11.1852 21.9993 11.9902C22.0013 12.7902 21.6933 13.5432 21.1323 14.1122C21.1223 14.1222 21.1133 14.1332 21.1033 14.1422L20.3933 14.8522C20.1113 15.1352 19.9553 15.5142 19.9543 15.9162V16.9432C19.9543 18.6032 18.6033 19.9542 16.9433 19.9542H15.9153C15.5143 19.9552 15.1353 20.1112 14.8513 20.3942L14.1323 21.1122C13.5463 21.7022 12.7723 21.9982 11.9993 21.9982" fill="white"/>
<path fill-rule="evenodd" clip-rule="evenodd" d="M10.0428 10.0509C9.87776 10.2159 9.66376 10.3049 9.42676 10.3049C9.20476 10.3049 8.98676 10.2139 8.81176 10.0499C8.64576 9.88489 8.55176 9.65889 8.55176 9.42989C8.55176 9.21189 8.64376 8.98789 8.80576 8.81489C8.89476 8.72489 9.00076 8.65689 9.10676 8.62089C9.40876 8.48289 9.80976 8.56389 10.0478 8.81389C10.1328 8.89889 10.1978 8.99189 10.2408 9.08889C10.2878 9.19289 10.3118 9.31089 10.3118 9.42989C10.3118 9.66789 10.2168 9.88889 10.0428 10.0509ZM15.1905 8.80979C14.8495 8.46979 14.2945 8.46979 13.9535 8.80979L8.81346 13.9498C8.47246 14.2908 8.47246 14.8458 8.81346 15.1878C8.97946 15.3528 9.19846 15.4438 9.43246 15.4438C9.66646 15.4438 9.88546 15.3528 10.0505 15.1878L15.1905 10.0478C15.5315 9.70579 15.5315 9.15179 15.1905 8.80979ZM14.9058 13.7639C14.5818 13.6279 14.1978 13.7019 13.9418 13.9579C13.8888 14.0199 13.8138 14.1159 13.7628 14.2289C13.7088 14.3509 13.7018 14.4819 13.7018 14.5699C13.7018 14.6579 13.7088 14.7879 13.7628 14.9099C13.8128 15.0219 13.8728 15.1129 13.9518 15.1919C14.1328 15.3599 14.3428 15.4449 14.5768 15.4449C14.7988 15.4449 15.0168 15.3549 15.1958 15.1879C15.3548 15.0289 15.4418 14.8089 15.4418 14.5699C15.4418 14.3299 15.3548 14.1109 15.1948 13.9509C15.1068 13.8639 15.0008 13.7959 14.9058 13.7639Z" fill="white"/>
</svg>
